<svg id="Laag_1" data-name="Laag 1" xmlns="http://www.w3.org/2000/svg" xmlns:xlink="http://www.w3.org/1999/xlink" viewBox="0 0 672.07 316.22"><defs><style>.cls-1,.cls-6{fill:none;}.cls-2{clip-path:url(#clip-path);}.cls-3{clip-path:url(#clip-path-2);}.cls-4{fill:#8799a0;}.cls-5,.cls-8{fill:#e73f11;}.cls-6{stroke:#353535;stroke-width:2px;}.cls-6,.cls-8{stroke-miterlimit:10;}.cls-7{fill:#353535;}.cls-8{stroke:#e73f11;}.cls-9{fill:#fff;}</style><clipPath id="clip-path"><rect class="cls-1" x="-84.91" y="56.22" width="841.89" height="1569.67"/></clipPath><clipPath id="clip-path-2"><rect class="cls-1" x="-69.41" y="-137.29" width="841.89" height="1230.55"/></clipPath></defs><title>1</title><g class="cls-2"><g class="cls-3"><path class="cls-4" d="M458.5,307.18l-242.76-.68a7.52,7.52,0,0,1-7.42-7.61l0.54-200.82a7.52,7.52,0,0,1,7.46-7.57l242.76,0.68a7.52,7.52,0,0,1,7.42,7.61L466,299.61a7.52,7.52,0,0,1-7.47,7.57"/><polygon class="cls-5" points="339.79 183.78 331.16 210.74 319.2 238.94 358.33 241.37 339.79 183.78"/><path class="cls-5" d="M409.17,286.13l-139.58,1.93a3.12,3.12,0,0,1-3.14-3.11l-0.37-28.21a3.13,3.13,0,0,1,3.05-3.2l139.58-1.93a3.13,3.13,0,0,1,3.14,3.11l0.37,28.21a3.13,3.13,0,0,1-3.05,3.2"/><path class="cls-6" d="M404.15,282.63L278.31,283c-1.71,0-3.2-2.37-3.31-5.29l-0.65-16c-0.12-2.93,1.17-5.31,2.89-5.31L403.08,256c1.71,0,3.2,2.37,3.31,5.29l0.65,16C407.16,280.24,405.87,282.62,404.15,282.63Z"/><rect class="cls-7" x="276.44" y="256.35" width="5.82" height="26.71" transform="translate(-3.72 3.91) rotate(-0.8)"/><rect class="cls-7" x="286.99" y="256.21" width="5.82" height="26.71" transform="translate(-3.72 4.05) rotate(-0.8)"/><rect class="cls-7" x="297.29" y="256.06" width="5.82" height="26.71" transform="translate(-3.67 4.14) rotate(-0.79)"/><rect class="cls-7" x="307.38" y="255.92" width="5.82" height="26.71" transform="translate(-3.71 4.34) rotate(-0.8)"/><rect class="cls-7" x="317.94" y="256.15" width="5.82" height="26.71" transform="translate(-3.71 4.48) rotate(-0.8)"/><rect class="cls-7" x="328.24" y="256.38" width="5.82" height="26.71" transform="translate(-3.72 4.63) rotate(-0.8)"/><rect class="cls-7" x="336.88" y="256.26" width="5.82" height="26.71" transform="translate(-3.71 4.75) rotate(-0.8)"/><rect class="cls-7" x="347.43" y="256.11" width="5.82" height="26.71" transform="translate(-3.71 4.89) rotate(-0.8)"/><rect class="cls-7" x="357.73" y="255.97" width="5.82" height="26.71" transform="translate(-3.71 5.04) rotate(-0.8)"/><rect class="cls-7" x="367.09" y="255.84" width="5.82" height="26.71" transform="translate(-3.7 5.17) rotate(-0.8)"/><rect class="cls-7" x="377.65" y="256.07" width="5.82" height="26.71" transform="translate(-3.71 5.31) rotate(-0.8)"/><rect class="cls-7" x="387.95" y="255.93" width="5.82" height="26.71" transform="translate(-3.7 5.46) rotate(-0.8)"/><rect class="cls-7" x="397.41" y="255.8" width="5.82" height="26.71" transform="translate(-3.7 5.59) rotate(-0.8)"/><path class="cls-8" d="M321.5,171.15c-0.06,23.13-19.82,41.83-44.12,41.77s-44-18.88-43.89-42,19.82-41.83,44.12-41.77,44,18.88,43.89,42"/><path class="cls-9" d="M317.1,171.14C317,192,299.26,208.79,277.39,208.73s-39.56-17-39.5-37.81,17.83-37.65,39.71-37.59,39.56,17,39.5,37.81"/><path class="cls-7" d="M287.76,171.51a11,11,0,1,1-11-11.25,11.11,11.11,0,0,1,11,11.25"/><path class="cls-5" d="M434,171.15c-0.06,23.13-19.82,41.83-44.12,41.77s-44-18.88-43.89-42,19.82-41.83,44.12-41.77,44,18.88,43.89,42"/><path class="cls-9" d="M429.57,171.14c-0.06,20.82-17.83,37.65-39.71,37.59s-39.56-17-39.5-37.81,17.83-37.65,39.71-37.59,39.56,17,39.5,37.81"/><path class="cls-7" d="M400.23,171.51a11,11,0,1,1-11-11.25,11.11,11.11,0,0,1,11,11.25"/><polygon class="cls-5" points="339.79 183.78 316.81 229.51 319.2 238.94 331.16 210.74 339.79 183.78"/></g></g></svg>