<svg id="Laag_1" data-name="Laag 1" xmlns="http://www.w3.org/2000/svg" xmlns:xlink="http://www.w3.org/1999/xlink" viewBox="0 0 672.07 316.22"><defs><style>.cls-1,.cls-7{fill:none;}.cls-2{clip-path:url(#clip-path);}.cls-3{fill:#475b67;}.cls-4{clip-path:url(#clip-path-2);}.cls-5{fill:#8799a0;}.cls-6,.cls-9{fill:#e73f11;}.cls-7{stroke:#353535;stroke-width:2px;}.cls-7,.cls-9{stroke-miterlimit:10;}.cls-8{fill:#353535;}.cls-9{stroke:#e73f11;}.cls-10{fill:#fff;}</style><clipPath id="clip-path"><rect class="cls-1" x="-65.78" y="-152.05" width="841.89" height="1190.55"/></clipPath><clipPath id="clip-path-2"><rect class="cls-1" x="-65.78" y="-152.06" width="841.89" height="1190.55"/></clipPath></defs><title>1-01</title><g class="cls-2"><polygon class="cls-3" points="459.65 306.94 212.41 306.94 250.36 267.71 419.54 267.71 459.65 306.94"/><g class="cls-4"><path class="cls-5" d="M457.12,272l-242.76-.66a7.39,7.39,0,0,1-7.42-7.37l0.54-194.29a7.4,7.4,0,0,1,7.46-7.33L457.71,63a7.39,7.39,0,0,1,7.42,7.37l-0.54,194.29a7.4,7.4,0,0,1-7.47,7.33"/><polygon class="cls-6" points="338.42 152.58 329.78 178.66 317.82 205.94 356.95 208.29 338.42 152.58"/><path class="cls-6" d="M407.8,251.6l-139.58,1.86a3.08,3.08,0,0,1-3.14-3l-0.37-27.29a3.07,3.07,0,0,1,3.05-3.1l139.58-1.86a3.08,3.08,0,0,1,3.14,3l0.37,27.29a3.07,3.07,0,0,1-3.05,3.1"/><path class="cls-7" d="M402.78,248.21l-125.84.33c-1.71,0-3.2-2.29-3.31-5.12L273,227.9c-0.12-2.83,1.17-5.13,2.89-5.14l125.84-.33c1.71,0,3.2,2.29,3.31,5.12l0.65,15.52C405.79,245.91,404.49,248.21,402.78,248.21Z"/><rect class="cls-8" x="275.07" y="222.79" width="5.82" height="25.85" transform="translate(-3.14 3.76) rotate(-0.77)"/><rect class="cls-8" x="285.62" y="222.65" width="5.82" height="25.85" transform="translate(-3.14 3.9) rotate(-0.77)"/><rect class="cls-8" x="295.92" y="222.51" width="5.82" height="25.85" transform="translate(-3.1 3.99) rotate(-0.76)"/><rect class="cls-8" x="306.01" y="222.38" width="5.82" height="25.85" transform="translate(-3.14 4.17) rotate(-0.77)"/><rect class="cls-8" x="316.57" y="222.6" width="5.82" height="25.85" transform="translate(-3.14 4.32) rotate(-0.77)"/><rect class="cls-8" x="326.87" y="222.82" width="5.82" height="25.85" transform="translate(-3.14 4.45) rotate(-0.77)"/><rect class="cls-8" x="335.5" y="222.7" width="5.82" height="25.85" transform="translate(-3.14 4.57) rotate(-0.77)"/><rect class="cls-8" x="346.06" y="222.56" width="5.82" height="25.85" transform="translate(-3.13 4.71) rotate(-0.77)"/><rect class="cls-8" x="356.36" y="222.43" width="5.82" height="25.85" transform="translate(-3.13 4.85) rotate(-0.77)"/><rect class="cls-8" x="365.72" y="222.3" width="5.82" height="25.85" transform="translate(-3.13 4.98) rotate(-0.77)"/><rect class="cls-8" x="376.27" y="222.52" width="5.82" height="25.85" transform="translate(-3.13 5.12) rotate(-0.77)"/><rect class="cls-8" x="386.57" y="222.38" width="5.82" height="25.85" transform="translate(-3.13 5.26) rotate(-0.77)"/><rect class="cls-8" x="396.04" y="222.25" width="5.82" height="25.85" transform="translate(-3.13 5.38) rotate(-0.77)"/><path class="cls-9" d="M320.12,140.36c-0.06,22.38-19.82,40.47-44.12,40.41s-44-18.26-43.89-40.65,19.82-40.47,44.12-40.41,44,18.26,43.89,40.65"/><path class="cls-10" d="M315.72,140.35c-0.06,20.14-17.83,36.43-39.71,36.37s-39.56-16.44-39.5-36.58,17.83-36.43,39.71-36.37,39.56,16.44,39.5,36.58"/><path class="cls-8" d="M286.38,140.71a11,11,0,1,1-11-10.89,10.93,10.93,0,0,1,11,10.89"/><path class="cls-6" d="M432.6,140.36c-0.06,22.38-19.82,40.47-44.12,40.41s-44-18.26-43.89-40.65,19.82-40.47,44.12-40.41,44,18.26,43.89,40.65"/><path class="cls-10" d="M428.2,140.35c-0.06,20.14-17.83,36.43-39.71,36.37s-39.56-16.44-39.5-36.58,17.83-36.43,39.71-36.37,39.56,16.44,39.5,36.58"/><path class="cls-8" d="M398.86,140.71a11,11,0,1,1-11-10.89,10.93,10.93,0,0,1,11,10.89"/><polygon class="cls-6" points="338.42 152.58 315.43 196.82 317.82 205.94 329.78 178.66 338.42 152.58"/></g></g></svg>