<svg id="Laag_1" data-name="Laag 1" xmlns="http://www.w3.org/2000/svg" xmlns:xlink="http://www.w3.org/1999/xlink" viewBox="0 0 672.07 316.22"><defs><style>.cls-1,.cls-9{fill:none;}.cls-2{clip-path:url(#clip-path);}.cls-3{clip-path:url(#clip-path-2);}.cls-4{fill:#8799a0;}.cls-10,.cls-5{fill:#e73f11;}.cls-6{fill:#fff;}.cls-7{fill:#475b67;}.cls-8{fill:#7e9196;}.cls-10,.cls-9{stroke:#e73f11;stroke-miterlimit:10;stroke-width:2px;}.cls-11{font-size:12px;fill:#2a1f49;font-family:DIN;font-weight:700;}</style><clipPath id="clip-path"><rect class="cls-1" x="-65.78" y="-471.33" width="841.89" height="1190.55"/></clipPath><clipPath id="clip-path-2"><rect class="cls-1" x="-65.78" y="-471.33" width="841.89" height="1190.55"/></clipPath></defs><title>2</title><g class="cls-2"><g class="cls-3"><path class="cls-4" d="M486,297l-285.94-.79a4.46,4.46,0,0,1-4.45-4.48l0.76-275.21a9.3,9.3,0,0,1,9.33-9.28L482,8a9.3,9.3,0,0,1,9.28,9.33l-0.76,275.21A4.46,4.46,0,0,1,486,297"/><path class="cls-5" d="M471.9,267.46l-250.56-.69c-2.37,0-4.28-1.93-8.44-4.3l0.57-205.3c4.18-4.17,7.57-7.55,11.75-7.54l244,0.67a7.56,7.56,0,0,1,7.54,7.58l-0.57,205.3a4.29,4.29,0,0,1-4.3,4.28"/><path class="cls-6" d="M457,257l-225.8-.62a4.46,4.46,0,0,1-4.45-4.48L227.26,67a6.84,6.84,0,0,1,6.86-6.82l221,0.61A6.84,6.84,0,0,1,462,67.62l-0.51,184.91A4.46,4.46,0,0,1,457,257"/><path class="cls-7" d="M115.76,28.38a5.35,5.35,0,1,1-1.56,7.4,5.34,5.34,0,0,1,1.56-7.4"/><path class="cls-8" d="M89.15,44.39L48.3,125.7l-3.74,15.56L63.16,218l11.62,36.89s-19.16,36.55,18.63,59.14c0,0,10.88-.91,2.54-10.56,0,0-28.35-31.5,8.55-42.62,0,0,19-6.61,31.16,11.6,0,0,2.9,12.45.77,19,0,0,3.43,16.11,10.62-2.15,0,0,12.53-38.14-16.51-52.76l-25.61-94.32,33.52-57.79Z"/><path class="cls-5" d="M85.53,104.07A39.15,39.15,0,1,1,38.31,133a39.15,39.15,0,0,1,47.21-28.93"/><path class="cls-4" d="M83.1,108.73A34.06,34.06,0,1,1,42,133.89,34.06,34.06,0,0,1,83.1,108.73"/><path class="cls-5" d="M134.9,16A47.16,47.16,0,1,1,78,50.84,47.15,47.15,0,0,1,134.9,16"/><path class="cls-4" d="M133.46,22A41,41,0,1,1,84,52.27,41,41,0,0,1,133.46,22"/><path class="cls-5" d="M79.31,131.19a12.19,12.19,0,1,1-15.45,7.67,12.19,12.19,0,0,1,15.45-7.67"/><path class="cls-7" d="M56.51,141.91a3.81,3.81,0,1,1-4.83,2.4,3.81,3.81,0,0,1,4.83-2.4"/><path class="cls-7" d="M64.73,155.27a3.81,3.81,0,1,1-4.83,2.4,3.81,3.81,0,0,1,4.83-2.4"/><path class="cls-7" d="M80.65,157.47a3.81,3.81,0,1,1-4.83,2.4,3.81,3.81,0,0,1,4.83-2.4"/><path class="cls-5" d="M103.85,234.58a6.67,6.67,0,1,1-8.45,4.2,6.67,6.67,0,0,1,8.45-4.2"/><path class="cls-7" d="M56.78,126.34a3.81,3.81,0,1,1-1.11,5.27,3.81,3.81,0,0,1,1.11-5.27"/><path class="cls-7" d="M69.43,118.09a3.81,3.81,0,1,1-1.11,5.27,3.81,3.81,0,0,1,1.11-5.27"/><path class="cls-7" d="M84.34,121.75A3.81,3.81,0,1,1,83.23,127a3.81,3.81,0,0,1,1.11-5.27"/><path class="cls-7" d="M92.57,134.38a3.81,3.81,0,1,1-1.11,5.27,3.81,3.81,0,0,1,1.11-5.27"/><path class="cls-7" d="M89.68,149.14a3.81,3.81,0,1,1-1.11,5.27,3.81,3.81,0,0,1,1.11-5.27"/><path class="cls-5" d="M129.61,46.75A17.1,17.1,0,1,1,108,57.51a17.1,17.1,0,0,1,21.66-10.76"/><path class="cls-7" d="M97.63,61.79a5.34,5.34,0,1,1-6.77,3.36,5.34,5.34,0,0,1,6.77-3.36"/><path class="cls-7" d="M109.16,80.54a5.34,5.34,0,1,1-6.77,3.36,5.34,5.34,0,0,1,6.77-3.36"/><path class="cls-7" d="M131.5,83.62A5.34,5.34,0,1,1,124.73,87a5.34,5.34,0,0,1,6.77-3.36"/><path class="cls-7" d="M98,40a5.35,5.35,0,1,1-1.56,7.4A5.34,5.34,0,0,1,98,40"/><path class="cls-7" d="M113.5,31.62a5.35,5.35,0,1,1-1.56,7.4,5.34,5.34,0,0,1,1.56-7.4"/><path class="cls-7" d="M148.21,51.23a5.35,5.35,0,1,1-1.56,7.4,5.34,5.34,0,0,1,1.56-7.4"/><path class="cls-7" d="M145.83,70.29a5.35,5.35,0,1,1-1.56,7.4,5.34,5.34,0,0,1,1.56-7.4"/><path class="cls-7" d="M135.11,31a5.35,5.35,0,1,1-1.56,7.4,5.34,5.34,0,0,1,1.56-7.4"/><line class="cls-9" x1="86.43" y1="86.85" x2="75" y2="106.78"/><line class="cls-9" x1="107.62" y1="100.15" x2="97.28" y2="115.51"/><line class="cls-9" x1="65.95" y1="226.88" x2="124.21" y2="213.27"/><line class="cls-9" x1="80.19" y1="223.56" x2="69.49" y2="176.93"/><line class="cls-9" x1="94.72" y1="173.1" x2="107.41" y2="217.19"/><path class="cls-7" d="M571.12,16.78a5.35,5.35,0,1,0,1.56,7.4,5.34,5.34,0,0,0-1.56-7.4"/><path class="cls-8" d="M597.73,32.79l40.85,81.31,3.74,15.56-18.6,76.77-11.62,36.89s19.16,36.55-18.62,59.14c0,0-10.88-.91-2.54-10.56,0,0,28.35-31.5-8.55-42.62,0,0-19-6.61-31.16,11.6,0,0-2.9,12.45-.77,19,0,0-3.43,16.11-10.62-2.15,0,0-12.53-38.14,16.51-52.76l25.61-94.32L548.43,72.84Z"/><path class="cls-5" d="M601.35,92.46a39.15,39.15,0,1,0,47.21,28.93,39.15,39.15,0,0,0-47.21-28.93"/><path class="cls-4" d="M603.77,97.12a34.06,34.06,0,1,0,41.07,25.17,34.06,34.06,0,0,0-41.07-25.17"/><path class="cls-5" d="M552,4.39a47.16,47.16,0,1,0,56.86,34.84A47.16,47.16,0,0,0,552,4.39"/><path class="cls-4" d="M553.41,10.35a41,41,0,1,0,49.47,30.31,41,41,0,0,0-49.47-30.31"/><path class="cls-5" d="M607.56,119.58A12.19,12.19,0,1,0,623,127.25a12.19,12.19,0,0,0-15.44-7.67"/><path class="cls-7" d="M630.37,130.3a3.81,3.81,0,1,0,4.83,2.4,3.81,3.81,0,0,0-4.83-2.4"/><path class="cls-7" d="M622.15,143.67a3.81,3.81,0,1,0,4.83,2.4,3.81,3.81,0,0,0-4.83-2.4"/><path class="cls-7" d="M606.22,145.86a3.81,3.81,0,1,0,4.83,2.4,3.81,3.81,0,0,0-4.83-2.4"/><path class="cls-5" d="M583,223a6.67,6.67,0,1,0,8.45,4.2A6.67,6.67,0,0,0,583,223"/><path class="cls-7" d="M630.09,114.74A3.81,3.81,0,1,0,631.2,120a3.81,3.81,0,0,0-1.11-5.27"/><path class="cls-7" d="M617.44,106.48a3.81,3.81,0,1,0,1.11,5.27,3.81,3.81,0,0,0-1.11-5.27"/><path class="cls-7" d="M602.54,110.14a3.81,3.81,0,1,0,1.11,5.27,3.81,3.81,0,0,0-1.11-5.27"/><path class="cls-7" d="M594.3,122.77a3.81,3.81,0,1,0,1.11,5.27,3.81,3.81,0,0,0-1.11-5.27"/><path class="cls-7" d="M597.19,137.53a3.81,3.81,0,1,0,1.11,5.27,3.81,3.81,0,0,0-1.11-5.27"/><path class="cls-5" d="M557.26,35.15A17.1,17.1,0,1,0,578.93,45.9a17.1,17.1,0,0,0-21.66-10.76"/><path class="cls-7" d="M589.25,50.19A5.34,5.34,0,1,0,596,53.55a5.34,5.34,0,0,0-6.77-3.36"/><path class="cls-7" d="M577.72,68.93a5.34,5.34,0,1,0,6.77,3.36,5.34,5.34,0,0,0-6.77-3.36"/><path class="cls-7" d="M555.38,72a5.34,5.34,0,1,0,6.77,3.36A5.34,5.34,0,0,0,555.38,72"/><path class="cls-7" d="M588.87,28.35a5.35,5.35,0,1,0,1.56,7.4,5.34,5.34,0,0,0-1.56-7.4"/><path class="cls-7" d="M573.38,20a5.35,5.35,0,1,0,1.56,7.4,5.34,5.34,0,0,0-1.56-7.4"/><path class="cls-7" d="M538.66,39.62a5.35,5.35,0,1,0,1.56,7.4,5.34,5.34,0,0,0-1.56-7.4"/><path class="cls-7" d="M541,58.68a5.35,5.35,0,1,0,1.56,7.4,5.34,5.34,0,0,0-1.56-7.4"/><path class="cls-7" d="M551.77,19.37a5.35,5.35,0,1,0,1.56,7.4,5.34,5.34,0,0,0-1.56-7.4"/><line class="cls-10" x1="600.44" y1="75.24" x2="611.88" y2="95.17"/><line class="cls-10" x1="579.26" y1="88.54" x2="589.6" y2="103.91"/><line class="cls-10" x1="620.93" y1="215.27" x2="562.66" y2="201.66"/><line class="cls-10" x1="606.69" y1="211.95" x2="617.38" y2="165.32"/><line class="cls-10" x1="592.15" y1="161.49" x2="579.46" y2="205.58"/></g></g><text class="cls-11" transform="translate(234.49 84.52)">Dan bent u bij De Notenkraker aan het <tspan x="0" y="14.4">juiste adres! De Notenkraker is een </tspan><tspan x="0" y="28.8">vintage speelgoedwinkel, wij bieden een </tspan><tspan x="0" y="43.2">ruim assortiment aan van blikken auto’s </tspan><tspan x="0" y="57.6">tot houten poppen, uit soms lang vervlo</tspan><tspan x="214.62" y="57.6">-</tspan><tspan x="0" y="72">gen tijden, pure nostalgie! In onze </tspan><tspan x="0" y="86.4">winkel is er ook een workshop met een </tspan><tspan x="0" y="100.8">ambachtsman voorzien waarbij u uw oud </tspan><tspan x="0" y="115.2">speelgoed kan laten restaureren op de </tspan><tspan x="0" y="129.6">authentieke manier. Zo brengen wij de </tspan><tspan x="0" y="144">ambacht van het handmatig speelgoed </tspan><tspan x="0" y="158.4">maken terug in de kijker.</tspan></text></svg>