<svg id="Laag_1" data-name="Laag 1" xmlns="http://www.w3.org/2000/svg" xmlns:xlink="http://www.w3.org/1999/xlink" viewBox="0 0 672.07 316.22"><defs><style>.cls-1,.cls-7{fill:none;}.cls-2{clip-path:url(#clip-path);}.cls-3{clip-path:url(#clip-path-2);}.cls-4{fill:#7e9196;}.cls-5{fill:#475b67;}.cls-6{fill:#8799a0;}.cls-7{stroke:#8799a0;stroke-miterlimit:10;stroke-width:6px;}.cls-8{fill:#e73f11;}</style><clipPath id="clip-path"><rect class="cls-1" x="-65.78" y="-465.54" width="841.89" height="1190.55"/></clipPath><clipPath id="clip-path-2"><rect class="cls-1" x="-65.78" y="-785.03" width="841.89" height="1190.55"/></clipPath></defs><title>3-01</title><g class="cls-2"><g class="cls-3"><path class="cls-4" d="M81.74-269.3L40.89-188l-3.74,15.56,18.6,76.77L67.38-58.78S48.22-22.23,86,.37c0,0,10.88-.91,2.54-10.56,0,0-28.35-31.5,8.55-42.62,0,0,19-6.61,31.16,11.6,0,0,2.9,12.45.77,19,0,0,3.43,16.11,10.62-2.15,0,0,12.53-38.14-16.51-52.76L97.53-171.46,131-229.24Z"/><rect class="cls-5" x="229.35" y="5.72" width="64.73" height="172.89"/><rect class="cls-6" x="229.35" y="66.56" width="64.73" height="50.52"/><line class="cls-7" x1="249.34" y1="5.72" x2="249.34" y2="178.61"/><line class="cls-7" x1="270.39" y1="5.72" x2="270.39" y2="178.61"/><path class="cls-8" d="M229.35,157.55L200.86,201a94.9,94.9,0,0,0-4.91,29.46H320.81s-7-28.06-9.82-30.86l-16.91-42.09s-25.18,27.36-61.66,0"/><rect class="cls-5" x="377.99" y="4.68" width="64.73" height="172.89"/><rect class="cls-6" x="377.99" y="65.53" width="64.73" height="50.52"/><line class="cls-7" x1="422.72" y1="4.68" x2="422.72" y2="177.58"/><line class="cls-7" x1="401.68" y1="4.68" x2="401.68" y2="177.58"/><path class="cls-8" d="M442.71,156.52L471.21,200a94.9,94.9,0,0,1,4.91,29.46H351.26s7-28.06,9.82-30.86L378,156.52s25.18,27.36,61.66,0"/></g></g></svg>