<?xml version="1.0" encoding="utf-8"?>
<!-- Generator: Adobe Illustrator 19.2.1, SVG Export Plug-In . SVG Version: 6.00 Build 0)  -->
<svg version="1.1" id="Laag_1" xmlns="http://www.w3.org/2000/svg" xmlns:xlink="http://www.w3.org/1999/xlink" x="0px" y="0px"
	 viewBox="0 0 595.3 841.9" style="enable-background:new 0 0 595.3 841.9;" xml:space="preserve">
<style type="text/css">
	.st0{fill:#2A1F49;}
	.st1{fill:#E73F11;}
	.st2{fill:none;stroke:#E73F11;stroke-width:3;stroke-linecap:round;stroke-linejoin:round;stroke-miterlimit:10;}
	.st3{fill:none;}
	.st4{fill:#FFFFFF;}
	.st5{fill:none;stroke:#000000;stroke-miterlimit:10;}
	.st6{fill:#2A1F49;stroke:#2A1F49;stroke-width:3;stroke-linecap:round;stroke-linejoin:round;stroke-miterlimit:10;}
</style>
<path class="st0" d="M416.6,471c0.5-34.8,0-104.2-10.2-142l-23.6,12.2c0,0,21.7,61.5,22.8,113.8v0l0,0c0.1,5.5,0,10.8-0.4,16
	c-1.1,5.6-3.9,9.9-10,7.4c-7.2-6.1-13.7-11.5-19.9-17.2c-10.6-9.8-20.3-20.5-31.2-29.8c-9.5-8.2-21-10.1-32.2-3.4
	c-9.1,5.5-17.1,5-26.1-0.1c-10.4-6-21-4.8-30.7,2.3c-5.1,3.8-10.1,7.9-14.7,12.3c-11.1,10.7-21.6,21.8-32.9,32.3
	c-2.5,2.4-5.8,3.9-9.4,5.6c-2.5-0.5-4.1-2.8-5.2-5.8c-7.4-55.1,21.6-137.6,21.6-137.6l-23.6-12.2c-13.9,51.8-9.7,163-9.7,163h0
	c-0.4,15.3-0.7,30.5,0.7,45.6c2.1,22.3,11,43.8,6.7,67.1c-3.6,19.6,4.7,35.6,20.1,48c5,4,10.3,7.7,14.7,12.3
	c10.2,10.5,19.9,21.4,30,32c7.2,7.7,13.9,16,22.1,22.5c15,11.8,29.8,12.1,45,0.6c8.3-6.3,15-14.7,22.3-22.3
	c7.9-8.3,15.3-17.1,23.4-25.2c6.3-6.3,13.4-11.9,20.2-17.8c17.2-14.7,23.6-33.2,21.5-55.7c-1.1-11.9-1.3-24.8,2-36.1
	C418.8,529.8,419.1,500.5,416.6,471z M311,517.3c-22.1,0.9-45.5,8-62.4-29.6c0.1-2.7,0.3-5.4,0.4-8.2c16.7-4.7,33.3-9.4,49.7-14.1
	c16.3,4.6,33,9.2,51.9,14.5C340.4,513.4,325.5,516.7,311,517.3z"/>
<g>
	<path class="st1" d="M157.9,189.5c11.1,44,29.4,88.2,40,112.2c-10.1,3.8-15.7,6.6-15.7,6.6c-9.8,19.3,9.8,27.7,9.8,27.7
		c84.2,39.7,197.7,7.2,212.3,0c14.6-7.2,9.8-27.7,9.8-27.7c-6-2.6-12-4.9-18-7c18.4-50.1,29.6-89,36.3-119.1
		C431.8,182.9,319.8,327.9,157.9,189.5z"/>
	<path class="st1" d="M437.1,86.8c-168.4-78.2-281,0-281,0c-5.1,10.2-7.3,23-7.5,37.3c0.6,1.1,117.9,221.8,292.5,0.3
		C442.7,95.5,437.1,86.8,437.1,86.8z"/>
</g>
<g>
	<path class="st1" d="M516.2,765.9c-133.3,81.7-301.2,81.7-434.5,0c0-25.2,0-50.5,0-75.7c133.3,81.7,301.2,81.7,434.5,0
		C516.2,715.4,516.2,740.7,516.2,765.9z"/>
	<path class="st2" d="M516.2,765.9c-133.3,81.7-301.2,81.7-434.5,0c0-25.2,0-50.5,0-75.7c133.3,81.7,301.2,81.7,434.5,0
		C516.2,715.4,516.2,740.7,516.2,765.9z"/>
</g>
<g>
	<path class="st3" d="M79.2,744.6c0,0,92.3,72,226.2,64.5c0,0,127.7-5.1,217.4-64.5"/>
	<path class="st4" d="M124.8,752.7c-1.9,3.3-3.2,5.4-4,6.4c-1.7,2.1-3.7,3.4-6,4.1c-3,0.8-6.1,0.3-9.5-1.6l-10.7-6.1l17-29.7
		l10.7,6.1c3.3,1.9,5.4,4.3,6.2,7.3c0.6,2.3,0.5,4.7-0.4,7.1C127.8,747.3,126.7,749.5,124.8,752.7z M119.1,749.4
		c1.4-2.4,2.3-4.1,2.7-5.2c0.5-1.2,0.6-2.3,0.5-3.3c-0.3-1.8-1.4-3.2-3.3-4.3l-4.4-2.5l-11.1,19.3l4.4,2.5c1.9,1.1,3.7,1.3,5.4,0.6
		c0.9-0.3,1.8-1.1,2.6-2.2C116.6,753.5,117.7,751.8,119.1,749.4z"/>
	<path class="st4" d="M144.6,780.9l-20.5-9.4l14.2-31.1l20.5,9.4l-2.5,5.4l-14.4-6.6l-3.3,7.3l12.3,5.6l-2.5,5.4l-12.3-5.6l-3.5,7.6
		l14.4,6.6L144.6,780.9z"/>
	<path class="st4" d="M188.3,796.2l-5.7-1.8l-6.5-24.1l-6.4,20l-6.4-2l10.4-32.6l5.7,1.8l6.5,24.1l6.4-19.9l6.4,2L188.3,796.2z"/>
	<path class="st4" d="M225.1,787.2c-0.8,3.6-1.5,6.1-2.1,7.5c-0.9,2.2-2.3,3.9-4.2,5.1c-3,1.9-6.2,2.5-9.8,1.7
		c-3.6-0.8-6.3-2.7-8.2-5.7c-1.2-1.8-1.7-4-1.6-6.4c0.1-1.4,0.5-4,1.3-7.6c0.8-3.7,1.5-6.1,2-7.5c1-2.2,2.3-4,4.2-5.1
		c3-1.9,6.3-2.5,9.9-1.7c3.6,0.8,6.3,2.7,8.2,5.6c1.2,1.9,1.7,4,1.6,6.4C226.3,781,225.9,783.6,225.1,787.2z M218.6,785.8
		c0.6-2.6,0.9-4.2,1-4.9c0.3-2.1,0.1-3.7-0.6-4.8c-0.8-1.4-2.1-2.3-3.8-2.7c-1.8-0.4-3.3-0.1-4.6,0.9c-1,0.8-1.8,2.2-2.5,4.2
		c-0.2,0.5-0.6,2.2-1.2,4.9c-0.6,2.7-0.9,4.3-1,4.9c-0.3,2.1-0.1,3.7,0.5,4.8c0.8,1.4,2.1,2.3,3.8,2.7c1.9,0.4,3.6,0,5-1.3
		C216.4,793.4,217.5,790.6,218.6,785.8z"/>
	<path class="st4" d="M255.4,780.2l-8.9-1.2l-3.7,28l-6.6-0.9l3.7-28l-8.9-1.2l0.8-5.9l24.3,3.2L255.4,780.2z"/>
	<path class="st4" d="M281.4,809.8l-22.5-1l1.6-34.2l22.5,1l-0.3,5.9l-15.8-0.7l-0.4,8l13.5,0.6l-0.3,5.9l-13.5-0.6l-0.4,8.3
		l15.8,0.7L281.4,809.8z"/>
	<path class="st4" d="M315.9,808.6l-5.9,0.3l-14.5-20.4l0.9,21l-6.7,0.3l-1.5-34.2l5.9-0.3l14.5,20.3l-0.9-20.9l6.7-0.3L315.9,808.6
		z"/>
	<path class="st4" d="M352.9,804.2l-7.7,1l-10.6-14.4l-3.7,5.8l1.3,10.2l-6.6,0.8l-4.2-33.9l6.6-0.8l1.8,14.8l10.1-16.3l8.1-1
		l-9.6,14.9L352.9,804.2z"/>
	<path class="st4" d="M383.7,798.6l-7.6,1.4l-9-12.2l-4.7,0.9l2.4,13.4l-6.6,1.2l-6.1-33.6l13.2-2.4c3.3-0.6,6.2-0.1,8.6,1.6
		c2.3,1.6,3.7,3.8,4.2,6.8c0.4,2.2,0.1,4.3-0.8,6.1c-0.8,1.6-2.1,2.9-3.7,3.9L383.7,798.6z M371.5,776.7c-0.2-1.3-0.9-2.3-1.9-3
		c-1-0.7-2.3-0.9-3.7-0.6l-6.2,1.1l1.6,8.8l6.2-1.1c1.4-0.3,2.5-0.9,3.2-1.8C371.5,779.1,371.8,778,371.5,776.7z"/>
	<path class="st4" d="M415.9,790.9l-6.8,1.6l-3.4-5.4L394,790l-0.6,6.4l-6.8,1.6l4.1-36.2l5.1-1.2L415.9,790.9z M402.7,782.1
		l-7-11.1l-1.3,13.1L402.7,782.1z"/>
	<path class="st4" d="M447.7,781.1l-7.4,2.3l-13-12.2l-2.6,6.4l3.1,9.8l-6.4,2l-10.2-32.7l6.4-2l4.4,14.2l7.1-17.8l7.8-2.4
		l-6.8,16.3L447.7,781.1z"/>
	<path class="st4" d="M474.1,770.8l-21,8.3l-12.5-31.8l21-8.3l2.2,5.5l-14.7,5.8l2.9,7.5l12.6-5l2.2,5.5l-12.6,5l3,7.7l14.7-5.8
		L474.1,770.8z"/>
	<path class="st4" d="M504.9,755.8l-6.9,3.5l-12.1-9.2l-4.3,2.2l6.1,12.2l-6,3l-15.3-30.6l12-6c3-1.5,5.9-1.8,8.7-0.9
		c2.6,0.9,4.6,2.6,5.9,5.3c1,2,1.3,4.1,1,6.1c-0.4,1.8-1.2,3.4-2.5,4.7L504.9,755.8z M487.1,738.2c-0.6-1.2-1.5-2-2.7-2.3
		c-1.2-0.3-2.4-0.2-3.7,0.5l-5.6,2.8l4,8l5.6-2.8c1.3-0.6,2.1-1.5,2.6-2.7S487.7,739.4,487.1,738.2z"/>
</g>
<path class="st0" d="M304.4,228.4C382.4,6.7,289.9,5,289.9,5c-92,9.6-33.3,163.6-6.3,224.4c-8.3,4.5-13.9,13.8-13.9,24.4
	c0,15.1,11.4,27.4,25.4,27.4c14,0,25.4-12.3,25.4-27.4C320.4,242.3,313.8,232.4,304.4,228.4z"/>
<path class="st5" d="M523.4,685.3"/>
<g>
	<path class="st6" d="M530,755.8l-5.4-70.5l-14.5-6.7l50.5-9.3c0,0-22.7,55.5,18.8,82.1L530,755.8z"/>
	<path class="st0" d="M522.5,755.8v-74.3h13.6l8.7,74.3C544.8,755.8,524.7,760.5,522.5,755.8z"/>
</g>
<g>
	<path class="st6" d="M67.3,756.8l5.4-70.5l14.5-6.7l-50.5-9.3c0,0,22.7,55.5-18.8,82.1L67.3,756.8z"/>
	<path class="st0" d="M74.8,756.8v-74.3H61.2l-8.7,74.3C52.5,756.8,72.6,761.5,74.8,756.8z"/>
</g>
<g>
</g>
<g>
</g>
<g>
</g>
<g>
</g>
<g>
</g>
<g>
</g>
</svg>
