<svg id="Laag_1" data-name="Laag 1" xmlns="http://www.w3.org/2000/svg" xmlns:xlink="http://www.w3.org/1999/xlink" viewBox="0 0 672.07 277.73"><defs><style>.cls-1,.cls-7{fill:none;}.cls-2{clip-path:url(#clip-path);}.cls-3{fill:#475b67;}.cls-4{clip-path:url(#clip-path-2);}.cls-5{fill:#8799a0;}.cls-6,.cls-9{fill:#e73f11;}.cls-7{stroke:#353535;stroke-width:2px;}.cls-7,.cls-9{stroke-miterlimit:10;}.cls-8{fill:#353535;}.cls-9{stroke:#e73f11;}.cls-10{fill:#fff;}</style><clipPath id="clip-path"><rect class="cls-1" x="-65.78" y="-201.33" width="841.89" height="1190.55"/></clipPath><clipPath id="clip-path-2"><rect class="cls-1" x="-65.78" y="-201.33" width="841.89" height="1190.55"/></clipPath></defs><title>Posters OP2 (1)</title><g class="cls-2"><polygon class="cls-3" points="466.73 257.67 219.49 257.67 257.44 218.44 426.62 218.44 466.73 257.67"/><g class="cls-4"><path class="cls-5" d="M464.06,224.7L222.24,224a7.42,7.42,0,0,1-7.4-7.44l0.54-196.14a7.41,7.41,0,0,1,7.44-7.4l241.82,0.66A7.42,7.42,0,0,1,472,21.16L471.5,217.3a7.42,7.42,0,0,1-7.44,7.4"/><polygon class="cls-6" points="345.81 104.17 337.21 130.5 325.3 158.04 364.28 160.41 345.81 104.17"/><path class="cls-5" d="M486,567l-285.94-.79a4.46,4.46,0,0,1-4.45-4.48l0.76-275.21a9.3,9.3,0,0,1,9.33-9.28L482,278a9.3,9.3,0,0,1,9.28,9.33l-0.76,275.21A4.46,4.46,0,0,1,486,567"/><path class="cls-6" d="M414.92,204.13l-139,1.88a3.08,3.08,0,0,1-3.12-3l-0.37-27.55a3.08,3.08,0,0,1,3-3.12l139-1.88a3.08,3.08,0,0,1,3.13,3L418,201a3.08,3.08,0,0,1-3,3.13"/><path class="cls-7" d="M409.93,200.71L284.58,201c-1.71,0-3.18-2.31-3.3-5.17l-0.65-15.67c-0.12-2.86,1.17-5.18,2.87-5.19l125.35-.33c1.71,0,3.18,2.31,3.3,5.17l0.65,15.67C412.92,198.38,411.64,200.71,409.93,200.71Z"/><rect class="cls-8" x="282.71" y="175.05" width="5.8" height="26.09" transform="translate(-2.54 3.91) rotate(-0.78)"/><rect class="cls-8" x="293.22" y="174.91" width="5.8" height="26.09" transform="translate(-2.53 4.05) rotate(-0.78)"/><rect class="cls-8" x="303.48" y="174.77" width="5.8" height="26.09" transform="translate(-2.5 4.14) rotate(-0.77)"/><rect class="cls-8" x="313.53" y="174.63" width="5.8" height="26.09" transform="translate(-2.53 4.33) rotate(-0.78)"/><rect class="cls-8" x="324.05" y="174.85" width="5.8" height="26.09" transform="translate(-2.53 4.47) rotate(-0.78)"/><rect class="cls-8" x="334.31" y="175.08" width="5.8" height="26.09" transform="translate(-2.53 4.61) rotate(-0.78)"/><rect class="cls-8" x="342.91" y="174.96" width="5.8" height="26.09" transform="translate(-2.53 4.73) rotate(-0.78)"/><rect class="cls-8" x="353.42" y="174.82" width="5.8" height="26.09" transform="translate(-2.53 4.87) rotate(-0.78)"/><rect class="cls-8" x="363.68" y="174.68" width="5.8" height="26.09" transform="translate(-2.52 5.01) rotate(-0.78)"/><rect class="cls-8" x="373.01" y="174.55" width="5.8" height="26.09" transform="translate(-2.52 5.14) rotate(-0.78)"/><rect class="cls-8" x="383.52" y="174.77" width="5.8" height="26.09" transform="translate(-2.52 5.28) rotate(-0.78)"/><rect class="cls-8" x="393.78" y="174.63" width="5.8" height="26.09" transform="translate(-2.52 5.42) rotate(-0.78)"/><rect class="cls-8" x="403.21" y="174.51" width="5.8" height="26.09" transform="translate(-2.52 5.55) rotate(-0.78)"/><path class="cls-6" d="M552,274.39a47.16,47.16,0,1,0,56.86,34.84A47.16,47.16,0,0,0,552,274.39"/><path class="cls-9" d="M327.59,91.83c-0.06,22.6-19.74,40.86-43.95,40.79s-43.79-18.44-43.72-41,19.74-40.86,43.95-40.79,43.79,18.44,43.72,41"/><path class="cls-10" d="M323.21,91.82c-0.06,20.34-17.77,36.77-39.55,36.71s-39.41-16.6-39.35-36.93,17.76-36.77,39.55-36.71,39.41,16.59,39.35,36.93"/><path class="cls-8" d="M294,92.18a11,11,0,1,1-10.93-11,11,11,0,0,1,10.93,11"/><path class="cls-6" d="M439.63,91.83c-0.06,22.6-19.74,40.86-43.95,40.79s-43.79-18.44-43.72-41S371.7,50.73,395.91,50.8s43.79,18.44,43.72,41"/><path class="cls-10" d="M435.25,91.82c-0.06,20.34-17.77,36.77-39.55,36.71s-39.41-16.6-39.35-36.93,17.76-36.77,39.55-36.71,39.41,16.59,39.35,36.93"/><path class="cls-8" d="M406,92.18a11,11,0,1,1-10.93-11,11,11,0,0,1,10.93,11"/><polygon class="cls-6" points="345.81 104.17 322.92 148.83 325.3 158.04 337.21 130.5 345.81 104.17"/></g></g></svg>